<svg width="105" height="35" viewBox="0 0 105 35" fill="none" xmlns="http://www.w3.org/2000/svg">
<path d="M21.0381 30.5503V34H4.09717V30.5503H21.0381ZM4.9541 2.00781V34H0.713379V2.00781H4.9541ZM18.7969 15.7627V19.2124H4.09717V15.7627H18.7969ZM20.8184 2.00781V5.47949H4.09717V2.00781H20.8184ZM29.7173 14.9497V34H25.6304V10.2256H29.4976L29.7173 14.9497ZM28.8823 21.2119L26.9927 21.146C27.0073 19.52 27.2197 18.0186 27.6299 16.6416C28.04 15.25 28.6479 14.0415 29.4536 13.0161C30.2593 11.9907 31.2627 11.1997 32.4639 10.6431C33.665 10.0718 35.0566 9.78613 36.6387 9.78613C37.752 9.78613 38.7773 9.94727 39.7148 10.2695C40.6523 10.5771 41.4653 11.0679 42.1538 11.7417C42.8423 12.4155 43.377 13.2798 43.7578 14.3345C44.1387 15.3892 44.3291 16.6636 44.3291 18.1577V34H40.2642V18.3555C40.2642 17.1104 40.0518 16.1143 39.627 15.3672C39.2168 14.6201 38.6309 14.0781 37.8691 13.7412C37.1074 13.3896 36.2139 13.2139 35.1885 13.2139C33.9873 13.2139 32.9839 13.4263 32.1782 13.8511C31.3726 14.2759 30.728 14.8618 30.2446 15.6089C29.7612 16.356 29.4097 17.2129 29.1899 18.1797C28.9849 19.1318 28.8823 20.1426 28.8823 21.2119ZM44.2852 18.9707L41.5605 19.8057C41.5752 18.502 41.7876 17.2495 42.1978 16.0483C42.6226 14.8472 43.2305 13.7778 44.0215 12.8403C44.8271 11.9028 45.8159 11.1631 46.9878 10.6211C48.1597 10.0645 49.5 9.78613 51.0088 9.78613C52.2832 9.78613 53.4111 9.95459 54.3926 10.2915C55.3887 10.6284 56.2236 11.1484 56.8975 11.8516C57.5859 12.54 58.106 13.4263 58.4575 14.5103C58.8091 15.5942 58.9849 16.8833 58.9849 18.3774V34H54.8979V18.3335C54.8979 17.0005 54.6855 15.9678 54.2607 15.2354C53.8506 14.4883 53.2646 13.9683 52.5029 13.6753C51.7559 13.3677 50.8623 13.2139 49.8223 13.2139C48.9287 13.2139 48.1377 13.3677 47.4492 13.6753C46.7607 13.9829 46.1821 14.4077 45.7134 14.9497C45.2446 15.4771 44.8857 16.085 44.6367 16.7734C44.4023 17.4619 44.2852 18.1943 44.2852 18.9707ZM79.1558 29.9351V17.6963C79.1558 16.7588 78.9653 15.9458 78.5845 15.2573C78.2183 14.5542 77.6616 14.0122 76.9146 13.6313C76.1675 13.2505 75.2446 13.0601 74.146 13.0601C73.1206 13.0601 72.2197 13.2358 71.4434 13.5874C70.6816 13.939 70.0811 14.4004 69.6416 14.9717C69.2168 15.543 69.0044 16.1582 69.0044 16.8174H64.9395C64.9395 15.9678 65.1592 15.1255 65.5986 14.2905C66.0381 13.4556 66.668 12.7012 67.4883 12.0273C68.3232 11.3389 69.3193 10.7969 70.4766 10.4014C71.6484 9.99121 72.9521 9.78613 74.3877 9.78613C76.1162 9.78613 77.6396 10.0791 78.958 10.665C80.291 11.251 81.3311 12.1372 82.0781 13.3237C82.8398 14.4956 83.2207 15.9678 83.2207 17.7402V28.8145C83.2207 29.6055 83.2866 30.4478 83.4185 31.3413C83.5649 32.2349 83.7773 33.0039 84.0557 33.6484V34H79.8149C79.6099 33.5312 79.4487 32.9087 79.3315 32.1323C79.2144 31.3413 79.1558 30.6089 79.1558 29.9351ZM79.8589 19.5859L79.9028 22.4424H75.7939C74.6367 22.4424 73.604 22.5376 72.6958 22.728C71.7876 22.9038 71.0259 23.1748 70.4106 23.541C69.7954 23.9072 69.3267 24.3687 69.0044 24.9253C68.6821 25.4673 68.521 26.1045 68.521 26.8369C68.521 27.584 68.6895 28.2651 69.0264 28.8804C69.3633 29.4956 69.8687 29.9863 70.5425 30.3525C71.231 30.7041 72.0732 30.8799 73.0693 30.8799C74.3145 30.8799 75.4131 30.6162 76.3652 30.0889C77.3174 29.5615 78.0718 28.917 78.6284 28.1553C79.1997 27.3936 79.5073 26.6538 79.5513 25.936L81.2871 27.8916C81.1846 28.5068 80.9062 29.188 80.4521 29.9351C79.998 30.6821 79.3901 31.3999 78.6284 32.0884C77.8813 32.7622 76.9878 33.3262 75.9478 33.7803C74.9224 34.2197 73.7651 34.4395 72.4761 34.4395C70.8647 34.4395 69.4512 34.1245 68.2354 33.4946C67.0342 32.8647 66.0967 32.0225 65.4229 30.9678C64.7637 29.8984 64.4341 28.7046 64.4341 27.3862C64.4341 26.1118 64.6831 24.9912 65.1812 24.0244C65.6792 23.043 66.397 22.23 67.3345 21.5854C68.272 20.9263 69.3999 20.4282 70.7183 20.0913C72.0366 19.7544 73.5088 19.5859 75.1348 19.5859H79.8589ZM94.0312 10.2256V34H89.9443V10.2256H94.0312ZM89.6367 3.91943C89.6367 3.26025 89.8345 2.70361 90.23 2.24951C90.6401 1.79541 91.2407 1.56836 92.0317 1.56836C92.8081 1.56836 93.4014 1.79541 93.8115 2.24951C94.2363 2.70361 94.4487 3.26025 94.4487 3.91943C94.4487 4.54932 94.2363 5.09131 93.8115 5.54541C93.4014 5.98486 92.8081 6.20459 92.0317 6.20459C91.2407 6.20459 90.6401 5.98486 90.23 5.54541C89.8345 5.09131 89.6367 4.54932 89.6367 3.91943ZM104.974 0.25V34H100.887V0.25H104.974Z" fill="black"/>
</svg>
