<svg width="87" height="93" viewBox="0 0 87 93" fill="none" xmlns="http://www.w3.org/2000/svg">
<path fill-rule="evenodd" clip-rule="evenodd" d="M43.5 81.8956C63.0198 81.8956 78.8438 65.5144 78.8438 45.3072C78.8438 25.1 63.0198 8.71875 43.5 8.71875C23.9802 8.71875 8.15625 25.1 8.15625 45.3072C8.15625 56.2975 12.8371 66.1561 20.2475 72.863V80.2671C20.2475 83.1609 23.005 85.1018 25.4635 83.9386L33.1497 80.3017C36.4232 81.3381 39.8987 81.8956 43.5 81.8956Z" fill="url(#paint0_linear_58_127)"/>
<path d="M35.0365 37.5293L24.7875 52.5129C23.6886 54.1194 25.6648 56.0494 27.1694 54.839L35.9209 47.7987C36.8117 47.0821 38.0604 47.0724 38.9616 47.7752L46.7449 53.8447C48.2375 55.0087 50.3708 54.6739 51.4576 53.1051L62.2063 37.5896C63.3211 35.9805 61.3296 34.0349 59.8229 35.2611L50.5705 42.7905C49.6795 43.5155 48.4241 43.5288 47.5188 42.8229L39.7608 36.7731C38.2619 35.6042 36.1187 35.9473 35.0365 37.5293Z" fill="white"/>
<defs>
<linearGradient id="paint0_linear_58_127" x1="43.5" y1="8.71875" x2="30.5876" y2="83.5985" gradientUnits="userSpaceOnUse">
<stop stop-color="#00B1FF"/>
<stop offset="1" stop-color="#006BFF"/>
</linearGradient>
</defs>
</svg>
