<svg width="237" height="33" viewBox="0 0 237 33" fill="none" xmlns="http://www.w3.org/2000/svg">
<path d="M4.26172 0.0078125V32H0.0209961V0.0078125H4.26172ZM15.4238 13.3013V32H11.3589V8.22559H15.2041L15.4238 13.3013ZM14.457 19.2119L12.7651 19.146C12.7798 17.52 13.0215 16.0186 13.4902 14.6416C13.959 13.25 14.6182 12.0415 15.4678 11.0161C16.3174 9.99072 17.3281 9.19971 18.5 8.64307C19.6865 8.07178 20.9976 7.78613 22.4331 7.78613C23.605 7.78613 24.6597 7.94727 25.5972 8.26953C26.5347 8.57715 27.333 9.0752 27.9922 9.76367C28.666 10.4521 29.1787 11.3457 29.5303 12.4443C29.8818 13.5283 30.0576 14.854 30.0576 16.4214V32H25.9707V16.3774C25.9707 15.1323 25.7876 14.1362 25.4214 13.3892C25.0552 12.6274 24.5205 12.0781 23.8174 11.7412C23.1143 11.3896 22.25 11.2139 21.2246 11.2139C20.2139 11.2139 19.291 11.4263 18.4561 11.8511C17.6357 12.2759 16.9253 12.8618 16.3247 13.6089C15.7388 14.356 15.2773 15.2129 14.9404 16.1797C14.6182 17.1318 14.457 18.1426 14.457 19.2119ZM50.0747 25.6938C50.0747 25.1079 49.9429 24.5659 49.6792 24.0679C49.4302 23.5552 48.9102 23.0938 48.1191 22.6836C47.3428 22.2588 46.1709 21.8926 44.6035 21.585C43.2852 21.3066 42.0913 20.9771 41.022 20.5962C39.9673 20.2153 39.0664 19.7539 38.3193 19.2119C37.5869 18.6699 37.0229 18.0327 36.6274 17.3003C36.2319 16.5679 36.0342 15.7109 36.0342 14.7295C36.0342 13.792 36.2393 12.9058 36.6494 12.0708C37.0742 11.2358 37.6675 10.4961 38.4292 9.85156C39.2056 9.20703 40.1357 8.70166 41.2197 8.33545C42.3037 7.96924 43.5122 7.78613 44.8452 7.78613C46.7495 7.78613 48.3755 8.12305 49.7231 8.79688C51.0708 9.4707 52.1035 10.3716 52.8213 11.4995C53.5391 12.6128 53.8979 13.8506 53.8979 15.2129H49.833C49.833 14.5537 49.6353 13.9165 49.2397 13.3013C48.8589 12.6714 48.2949 12.1514 47.5479 11.7412C46.8154 11.3311 45.9146 11.126 44.8452 11.126C43.7173 11.126 42.8018 11.3018 42.0986 11.6533C41.4102 11.9902 40.9048 12.4224 40.5825 12.9497C40.2749 13.4771 40.1211 14.0337 40.1211 14.6196C40.1211 15.0591 40.1943 15.4546 40.3408 15.8062C40.502 16.1431 40.7803 16.458 41.1758 16.751C41.5713 17.0293 42.1279 17.293 42.8457 17.542C43.5635 17.791 44.479 18.04 45.5923 18.2891C47.5405 18.7285 49.1445 19.2559 50.4043 19.8711C51.6641 20.4863 52.6016 21.2407 53.2168 22.1343C53.832 23.0278 54.1396 24.1118 54.1396 25.3862C54.1396 26.4263 53.9199 27.3784 53.4805 28.2427C53.0557 29.1069 52.4331 29.854 51.6128 30.4839C50.8071 31.0991 49.8403 31.5825 48.7124 31.9341C47.5991 32.271 46.3467 32.4395 44.9551 32.4395C42.8604 32.4395 41.0879 32.0659 39.6377 31.3188C38.1875 30.5718 37.0889 29.605 36.3418 28.4185C35.5947 27.2319 35.2212 25.9795 35.2212 24.6611H39.3081C39.3667 25.7744 39.689 26.6606 40.2749 27.3198C40.8608 27.9644 41.5786 28.4258 42.4282 28.7041C43.2778 28.9678 44.1201 29.0996 44.9551 29.0996C46.0684 29.0996 46.9985 28.9531 47.7456 28.6602C48.5073 28.3672 49.0859 27.9644 49.4814 27.4517C49.877 26.939 50.0747 26.353 50.0747 25.6938ZM68.9932 29.0996C69.96 29.0996 70.8535 28.9019 71.6738 28.5063C72.4941 28.1108 73.168 27.5688 73.6953 26.8804C74.2227 26.1772 74.5229 25.3789 74.5962 24.4854H78.4634C78.3901 25.8916 77.9141 27.2026 77.0352 28.4185C76.1709 29.6196 75.0356 30.5938 73.6294 31.3408C72.2231 32.0732 70.6777 32.4395 68.9932 32.4395C67.2061 32.4395 65.646 32.1245 64.313 31.4946C62.9946 30.8647 61.896 30.0005 61.0171 28.9019C60.1528 27.8032 59.501 26.5435 59.0615 25.1226C58.6367 23.687 58.4243 22.1709 58.4243 20.5742V19.6514C58.4243 18.0547 58.6367 16.5459 59.0615 15.125C59.501 13.6895 60.1528 12.4224 61.0171 11.3237C61.896 10.2251 62.9946 9.36084 64.313 8.73096C65.646 8.10107 67.2061 7.78613 68.9932 7.78613C70.8535 7.78613 72.4795 8.16699 73.8711 8.92871C75.2627 9.67578 76.354 10.7012 77.145 12.0049C77.9507 13.2939 78.3901 14.7588 78.4634 16.3994H74.5962C74.5229 15.418 74.2446 14.5317 73.7612 13.7407C73.2925 12.9497 72.6479 12.3198 71.8276 11.8511C71.022 11.3677 70.0771 11.126 68.9932 11.126C67.748 11.126 66.7007 11.375 65.8511 11.873C65.0161 12.3564 64.3496 13.0156 63.8516 13.8506C63.3682 14.6709 63.0166 15.5864 62.7969 16.5972C62.5918 17.5933 62.4893 18.6113 62.4893 19.6514V20.5742C62.4893 21.6143 62.5918 22.6396 62.7969 23.6504C63.002 24.6611 63.3462 25.5767 63.8296 26.397C64.3276 27.2173 64.9941 27.8765 65.8291 28.3745C66.6787 28.8579 67.7334 29.0996 68.9932 29.0996ZM87.0986 11.9609V32H83.0337V8.22559H86.9888L87.0986 11.9609ZM94.5254 8.09375L94.5034 11.873C94.1665 11.7998 93.8442 11.7559 93.5366 11.7412C93.2437 11.7119 92.9067 11.6973 92.5259 11.6973C91.5884 11.6973 90.7607 11.8438 90.043 12.1367C89.3252 12.4297 88.7173 12.8398 88.2192 13.3672C87.7212 13.8945 87.3257 14.5244 87.0327 15.2568C86.7544 15.9746 86.5713 16.7656 86.4834 17.6299L85.3408 18.2891C85.3408 16.8535 85.48 15.5059 85.7583 14.2461C86.0513 12.9863 86.498 11.873 87.0986 10.9062C87.6992 9.9248 88.4609 9.16309 89.3838 8.62109C90.3213 8.06445 91.4346 7.78613 92.7236 7.78613C93.0166 7.78613 93.3535 7.82275 93.7344 7.896C94.1152 7.95459 94.3789 8.02051 94.5254 8.09375ZM107.709 32.4395C106.054 32.4395 104.552 32.1611 103.205 31.6045C101.872 31.0332 100.722 30.2349 99.7549 29.2095C98.8027 28.1841 98.0703 26.9683 97.5576 25.562C97.0449 24.1558 96.7886 22.6177 96.7886 20.9478V20.0249C96.7886 18.0913 97.0742 16.3701 97.6455 14.8613C98.2168 13.3379 98.9932 12.0488 99.9746 10.9941C100.956 9.93945 102.069 9.14111 103.314 8.59912C104.56 8.05713 105.849 7.78613 107.182 7.78613C108.881 7.78613 110.346 8.0791 111.576 8.66504C112.821 9.25098 113.839 10.0713 114.63 11.126C115.421 12.166 116.007 13.3965 116.388 14.8174C116.769 16.2236 116.959 17.7617 116.959 19.4316V21.2554H99.2056V17.9375H112.895V17.6299C112.836 16.5752 112.616 15.5498 112.235 14.5537C111.869 13.5576 111.283 12.7373 110.478 12.0928C109.672 11.4482 108.573 11.126 107.182 11.126C106.259 11.126 105.409 11.3237 104.633 11.7192C103.856 12.1001 103.19 12.6714 102.633 13.4331C102.077 14.1948 101.645 15.125 101.337 16.2236C101.029 17.3223 100.875 18.5894 100.875 20.0249V20.9478C100.875 22.0757 101.029 23.1377 101.337 24.1338C101.659 25.1152 102.121 25.9795 102.721 26.7266C103.336 27.4736 104.076 28.0596 104.94 28.4844C105.819 28.9092 106.815 29.1216 107.929 29.1216C109.364 29.1216 110.58 28.8286 111.576 28.2427C112.572 27.6567 113.444 26.873 114.191 25.8916L116.652 27.8472C116.139 28.6235 115.487 29.3633 114.696 30.0664C113.905 30.7695 112.931 31.3408 111.774 31.7803C110.631 32.2197 109.276 32.4395 107.709 32.4395ZM128.627 28.3306L135.131 8.22559H139.284L130.736 32H128.012L128.627 28.3306ZM123.2 8.22559L129.901 28.4404L130.363 32H127.638L119.025 8.22559H123.2ZM152.753 32.4395C151.098 32.4395 149.596 32.1611 148.249 31.6045C146.916 31.0332 145.766 30.2349 144.799 29.2095C143.847 28.1841 143.114 26.9683 142.602 25.562C142.089 24.1558 141.833 22.6177 141.833 20.9478V20.0249C141.833 18.0913 142.118 16.3701 142.689 14.8613C143.261 13.3379 144.037 12.0488 145.019 10.9941C146 9.93945 147.113 9.14111 148.358 8.59912C149.604 8.05713 150.893 7.78613 152.226 7.78613C153.925 7.78613 155.39 8.0791 156.62 8.66504C157.865 9.25098 158.883 10.0713 159.674 11.126C160.465 12.166 161.051 13.3965 161.432 14.8174C161.813 16.2236 162.003 17.7617 162.003 19.4316V21.2554H144.25V17.9375H157.938V17.6299C157.88 16.5752 157.66 15.5498 157.279 14.5537C156.913 13.5576 156.327 12.7373 155.521 12.0928C154.716 11.4482 153.617 11.126 152.226 11.126C151.303 11.126 150.453 11.3237 149.677 11.7192C148.9 12.1001 148.234 12.6714 147.677 13.4331C147.121 14.1948 146.688 15.125 146.381 16.2236C146.073 17.3223 145.919 18.5894 145.919 20.0249V20.9478C145.919 22.0757 146.073 23.1377 146.381 24.1338C146.703 25.1152 147.165 25.9795 147.765 26.7266C148.38 27.4736 149.12 28.0596 149.984 28.4844C150.863 28.9092 151.859 29.1216 152.973 29.1216C154.408 29.1216 155.624 28.8286 156.62 28.2427C157.616 27.6567 158.488 26.873 159.235 25.8916L161.696 27.8472C161.183 28.6235 160.531 29.3633 159.74 30.0664C158.949 30.7695 157.975 31.3408 156.818 31.7803C155.675 32.2197 154.32 32.4395 152.753 32.4395ZM170.814 11.9609V32H166.75V8.22559H170.705L170.814 11.9609ZM178.241 8.09375L178.219 11.873C177.882 11.7998 177.56 11.7559 177.252 11.7412C176.959 11.7119 176.623 11.6973 176.242 11.6973C175.304 11.6973 174.477 11.8438 173.759 12.1367C173.041 12.4297 172.433 12.8398 171.935 13.3672C171.437 13.8945 171.042 14.5244 170.749 15.2568C170.47 15.9746 170.287 16.7656 170.199 17.6299L169.057 18.2891C169.057 16.8535 169.196 15.5059 169.474 14.2461C169.767 12.9863 170.214 11.873 170.814 10.9062C171.415 9.9248 172.177 9.16309 173.1 8.62109C174.037 8.06445 175.15 7.78613 176.439 7.78613C176.732 7.78613 177.069 7.82275 177.45 7.896C177.831 7.95459 178.095 8.02051 178.241 8.09375ZM190.458 16.729V20.0688H179.735V16.729H190.458ZM208.278 25.6938C208.278 25.1079 208.146 24.5659 207.882 24.0679C207.633 23.5552 207.113 23.0938 206.322 22.6836C205.546 22.2588 204.374 21.8926 202.807 21.585C201.488 21.3066 200.294 20.9771 199.225 20.5962C198.17 20.2153 197.27 19.7539 196.522 19.2119C195.79 18.6699 195.226 18.0327 194.831 17.3003C194.435 16.5679 194.237 15.7109 194.237 14.7295C194.237 13.792 194.442 12.9058 194.853 12.0708C195.277 11.2358 195.871 10.4961 196.632 9.85156C197.409 9.20703 198.339 8.70166 199.423 8.33545C200.507 7.96924 201.715 7.78613 203.048 7.78613C204.953 7.78613 206.579 8.12305 207.926 8.79688C209.274 9.4707 210.307 10.3716 211.024 11.4995C211.742 12.6128 212.101 13.8506 212.101 15.2129H208.036C208.036 14.5537 207.838 13.9165 207.443 13.3013C207.062 12.6714 206.498 12.1514 205.751 11.7412C205.019 11.3311 204.118 11.126 203.048 11.126C201.92 11.126 201.005 11.3018 200.302 11.6533C199.613 11.9902 199.108 12.4224 198.786 12.9497C198.478 13.4771 198.324 14.0337 198.324 14.6196C198.324 15.0591 198.397 15.4546 198.544 15.8062C198.705 16.1431 198.983 16.458 199.379 16.751C199.774 17.0293 200.331 17.293 201.049 17.542C201.767 17.791 202.682 18.04 203.795 18.2891C205.744 18.7285 207.348 19.2559 208.607 19.8711C209.867 20.4863 210.805 21.2407 211.42 22.1343C212.035 23.0278 212.343 24.1118 212.343 25.3862C212.343 26.4263 212.123 27.3784 211.684 28.2427C211.259 29.1069 210.636 29.854 209.816 30.4839C209.01 31.0991 208.043 31.5825 206.916 31.9341C205.802 32.271 204.55 32.4395 203.158 32.4395C201.063 32.4395 199.291 32.0659 197.841 31.3188C196.391 30.5718 195.292 29.605 194.545 28.4185C193.798 27.2319 193.424 25.9795 193.424 24.6611H197.511C197.57 25.7744 197.892 26.6606 198.478 27.3198C199.064 27.9644 199.782 28.4258 200.631 28.7041C201.481 28.9678 202.323 29.0996 203.158 29.0996C204.271 29.0996 205.202 28.9531 205.949 28.6602C206.71 28.3672 207.289 27.9644 207.685 27.4517C208.08 26.939 208.278 26.353 208.278 25.6938ZM227.548 32.4395C225.893 32.4395 224.391 32.1611 223.043 31.6045C221.71 31.0332 220.561 30.2349 219.594 29.2095C218.642 28.1841 217.909 26.9683 217.396 25.562C216.884 24.1558 216.627 22.6177 216.627 20.9478V20.0249C216.627 18.0913 216.913 16.3701 217.484 14.8613C218.056 13.3379 218.832 12.0488 219.813 10.9941C220.795 9.93945 221.908 9.14111 223.153 8.59912C224.398 8.05713 225.688 7.78613 227.021 7.78613C228.72 7.78613 230.185 8.0791 231.415 8.66504C232.66 9.25098 233.678 10.0713 234.469 11.126C235.26 12.166 235.846 13.3965 236.227 14.8174C236.608 16.2236 236.798 17.7617 236.798 19.4316V21.2554H219.044V17.9375H232.733V17.6299C232.675 16.5752 232.455 15.5498 232.074 14.5537C231.708 13.5576 231.122 12.7373 230.316 12.0928C229.511 11.4482 228.412 11.126 227.021 11.126C226.098 11.126 225.248 11.3237 224.472 11.7192C223.695 12.1001 223.029 12.6714 222.472 13.4331C221.916 14.1948 221.483 15.125 221.176 16.2236C220.868 17.3223 220.714 18.5894 220.714 20.0249V20.9478C220.714 22.0757 220.868 23.1377 221.176 24.1338C221.498 25.1152 221.959 25.9795 222.56 26.7266C223.175 27.4736 223.915 28.0596 224.779 28.4844C225.658 28.9092 226.654 29.1216 227.768 29.1216C229.203 29.1216 230.419 28.8286 231.415 28.2427C232.411 27.6567 233.283 26.873 234.03 25.8916L236.491 27.8472C235.978 28.6235 235.326 29.3633 234.535 30.0664C233.744 30.7695 232.77 31.3408 231.613 31.7803C230.47 32.2197 229.115 32.4395 227.548 32.4395Z" fill="white"/>
</svg>
