<svg width="81" height="93" viewBox="0 0 81 93" fill="none" xmlns="http://www.w3.org/2000/svg">
<rect x="5.0625" y="5.8125" width="70.875" height="81.375" rx="6" fill="url(#paint0_radial_58_82)"/>
<rect x="5.0625" y="5.8125" width="70.875" height="81.375" rx="6" fill="url(#paint1_radial_58_82)"/>
<rect x="5.0625" y="5.8125" width="70.875" height="81.375" rx="6" fill="url(#paint2_radial_58_82)"/>
<path d="M58.2188 30.5156C58.2188 32.9232 56.5188 34.875 54.4219 34.875C52.3249 34.875 50.625 32.9232 50.625 30.5156C50.625 28.108 52.3249 26.1562 54.4219 26.1562C56.5188 26.1562 58.2188 28.108 58.2188 30.5156Z" fill="white"/>
<path fill-rule="evenodd" clip-rule="evenodd" d="M40.5 61.0312C47.4899 61.0312 53.1562 54.5254 53.1562 46.5C53.1562 38.4746 47.4899 31.9688 40.5 31.9688C33.5101 31.9688 27.8438 38.4746 27.8438 46.5C27.8438 54.5254 33.5101 61.0312 40.5 61.0312ZM40.5 55.2188C44.6939 55.2188 48.0938 51.3152 48.0938 46.5C48.0938 41.6848 44.6939 37.7812 40.5 37.7812C36.3061 37.7812 32.9062 41.6848 32.9062 46.5C32.9062 51.3152 36.3061 55.2188 40.5 55.2188Z" fill="white"/>
<path fill-rule="evenodd" clip-rule="evenodd" d="M15.1875 45.3375C15.1875 35.5716 15.1875 30.6886 16.8428 26.9585C18.2989 23.6775 20.6223 21.0099 23.48 19.3381C26.7288 17.4375 30.9817 17.4375 39.4875 17.4375H41.5125C50.0183 17.4375 54.2712 17.4375 57.52 19.3381C60.3777 21.0099 62.7011 23.6775 64.1572 26.9585C65.8125 30.6886 65.8125 35.5716 65.8125 45.3375V47.6625C65.8125 57.4284 65.8125 62.3114 64.1572 66.0415C62.7011 69.3225 60.3777 71.9901 57.52 73.6619C54.2712 75.5625 50.0183 75.5625 41.5125 75.5625H39.4875C30.9817 75.5625 26.7288 75.5625 23.48 73.6619C20.6223 71.9901 18.2989 69.3225 16.8428 66.0415C15.1875 62.3114 15.1875 57.4284 15.1875 47.6625V45.3375ZM39.4875 23.25H41.5125C45.8489 23.25 48.7968 23.2545 51.0754 23.4683C53.2948 23.6765 54.4299 24.0539 55.2217 24.517C57.1268 25.6316 58.6757 27.41 59.6464 29.5974C60.0499 30.5064 60.3786 31.8096 60.5599 34.3579C60.7461 36.9741 60.75 40.3586 60.75 45.3375V47.6625C60.75 52.6414 60.7461 56.0259 60.5599 58.6421C60.3786 61.1904 60.0499 62.4936 59.6464 63.4026C58.6757 65.59 57.1268 67.3684 55.2217 68.4829C54.4299 68.9461 53.2948 69.3235 51.0754 69.5317C48.7968 69.7455 45.8489 69.75 41.5125 69.75H39.4875C35.1511 69.75 32.2032 69.7455 29.9246 69.5317C27.7052 69.3235 26.5701 68.9461 25.7783 68.4829C23.8732 67.3684 22.3243 65.59 21.3536 63.4026C20.9501 62.4936 20.6214 61.1904 20.4401 58.6421C20.2539 56.0259 20.25 52.6414 20.25 47.6625V45.3375C20.25 40.3586 20.2539 36.9741 20.4401 34.3579C20.6214 31.8096 20.9501 30.5064 21.3536 29.5974C22.3243 27.41 23.8732 25.6316 25.7783 24.517C26.5701 24.0539 27.7052 23.6765 29.9246 23.4683C32.2032 23.2545 35.1511 23.25 39.4875 23.25Z" fill="white"/>
<defs>
<radialGradient id="paint0_radial_58_82" cx="0" cy="0" r="1" gradientUnits="userSpaceOnUse" gradientTransform="translate(30.375 66.8438) rotate(-58.978) scale(71.2175 67.2712)">
<stop stop-color="#B13589"/>
<stop offset="0.79309" stop-color="#C62F94"/>
<stop offset="1" stop-color="#8A3AC8"/>
</radialGradient>
<radialGradient id="paint1_radial_58_82" cx="0" cy="0" r="1" gradientUnits="userSpaceOnUse" gradientTransform="translate(27.8437 90.0937) rotate(-68.0201) scale(64.248 58.4526)">
<stop stop-color="#E0E8B7"/>
<stop offset="0.444662" stop-color="#FB8A2E"/>
<stop offset="0.71474" stop-color="#E2425C"/>
<stop offset="1" stop-color="#E2425C" stop-opacity="0"/>
</radialGradient>
<radialGradient id="paint2_radial_58_82" cx="0" cy="0" r="1" gradientUnits="userSpaceOnUse" gradientTransform="translate(1.26563 8.71875) rotate(-9.31478) scale(98.7553 24.0987)">
<stop offset="0.156701" stop-color="#406ADC"/>
<stop offset="0.467799" stop-color="#6A45BE"/>
<stop offset="1" stop-color="#6A45BE" stop-opacity="0"/>
</radialGradient>
</defs>
</svg>
