<svg width="403" height="110" viewBox="0 0 403 110" fill="none" xmlns="http://www.w3.org/2000/svg">
<g filter="url(#filter0_d_58_61)">
<path d="M19.8426 2.84C23.0426 2.84 25.7946 3.496 28.0986 4.808C30.4346 6.088 32.2266 7.944 33.4746 10.376C34.7226 12.808 35.3466 15.736 35.3466 19.16C35.3466 22.584 34.7226 25.512 33.4746 27.944C32.2266 30.376 30.4346 32.248 28.0986 33.56C25.7946 34.84 23.0426 35.48 19.8426 35.48C16.6106 35.48 13.8266 34.84 11.4906 33.56C9.18663 32.248 7.41063 30.376 6.16263 27.944C4.91463 25.512 4.29063 22.584 4.29063 19.16C4.29063 15.736 4.91463 12.808 6.16263 10.376C7.41063 7.944 9.18663 6.088 11.4906 4.808C13.8266 3.496 16.6106 2.84 19.8426 2.84ZM19.8426 9.32C17.5386 9.32 15.7786 10.152 14.5626 11.816C13.3466 13.448 12.7386 15.896 12.7386 19.16C12.7386 22.424 13.3466 24.888 14.5626 26.552C15.7786 28.184 17.5386 29 19.8426 29C22.1146 29 23.8586 28.184 25.0746 26.552C26.2906 24.888 26.8986 22.424 26.8986 19.16C26.8986 15.896 26.2906 13.448 25.0746 11.816C23.8586 10.152 22.1146 9.32 19.8426 9.32ZM52.2636 35V11H59.5596L59.7996 15.656C60.5676 13.96 61.6396 12.68 63.0156 11.816C64.4236 10.952 66.0396 10.52 67.8636 10.52C69.6236 10.52 71.1596 10.92 72.4716 11.72C73.8156 12.52 74.8076 13.704 75.4476 15.272C76.1836 13.704 77.2716 12.52 78.7116 11.72C80.1836 10.92 81.7836 10.52 83.5116 10.52C85.8796 10.52 87.8316 11.24 89.3676 12.68C90.9356 14.088 91.7196 16.2 91.7196 19.016V35H83.5596V20.888C83.5596 19.352 83.2556 18.28 82.6476 17.672C82.0396 17.064 81.2556 16.76 80.2956 16.76C79.0796 16.76 78.0716 17.224 77.2716 18.152C76.4716 19.048 76.0716 20.392 76.0716 22.184V35H67.9116V20.888C67.9116 19.352 67.6076 18.28 66.9996 17.672C66.3916 17.064 65.6076 16.76 64.6476 16.76C63.5276 16.76 62.5356 17.192 61.6716 18.056C60.8396 18.92 60.4236 20.344 60.4236 22.328V35H52.2636ZM109.883 19.784C109.883 18.664 109.563 17.784 108.923 17.144C108.315 16.472 107.483 16.136 106.427 16.136C105.371 16.136 104.459 16.408 103.691 16.952C102.955 17.464 102.443 18.392 102.155 19.736L95.2431 18.104C95.6911 15.8 96.8751 13.96 98.7951 12.584C100.715 11.208 103.419 10.52 106.907 10.52C110.427 10.52 113.147 11.304 115.067 12.872C117.019 14.408 117.995 16.664 117.995 19.64V28.424C117.995 29.672 118.555 30.296 119.675 30.296C120.251 30.296 120.715 30.232 121.067 30.104L120.587 34.76C119.627 35.208 118.459 35.432 117.083 35.432C115.579 35.432 114.283 35.144 113.195 34.568C112.107 33.96 111.371 33.048 110.987 31.832C110.315 33.08 109.243 34.008 107.771 34.616C106.331 35.192 104.795 35.48 103.163 35.48C100.699 35.48 98.7311 34.92 97.2591 33.8C95.8191 32.648 95.0991 31 95.0991 28.856C95.0991 27.128 95.6111 25.704 96.6351 24.584C97.6911 23.432 99.3391 22.632 101.579 22.184L109.883 20.456V19.784ZM103.163 28.088C103.163 28.792 103.419 29.32 103.931 29.672C104.443 30.024 105.051 30.2 105.755 30.2C106.843 30.2 107.803 29.88 108.635 29.24C109.467 28.568 109.883 27.528 109.883 26.12V24.776L105.995 25.592C105.035 25.784 104.315 26.072 103.835 26.456C103.387 26.808 103.163 27.352 103.163 28.088ZM127.408 8.216C125.744 8.216 124.528 7.912 123.76 7.304C123.024 6.664 122.656 5.672 122.656 4.328C122.656 2.952 123.024 1.96 123.76 1.352C124.528 0.711999 125.744 0.391999 127.408 0.391999C129.04 0.391999 130.24 0.711999 131.008 1.352C131.776 1.96 132.16 2.952 132.16 4.328C132.16 5.672 131.776 6.664 131.008 7.304C130.24 7.912 129.04 8.216 127.408 8.216ZM131.488 11V35H123.328V11H131.488ZM147.761 10.52C150.289 10.52 152.497 11.016 154.385 12.008C156.305 13 157.793 14.424 158.849 16.28C159.937 18.136 160.481 20.376 160.481 23C160.481 25.624 159.937 27.864 158.849 29.72C157.793 31.576 156.305 33 154.385 33.992C152.497 34.984 150.289 35.48 147.761 35.48C145.265 35.48 143.057 34.984 141.137 33.992C139.249 33 137.761 31.576 136.673 29.72C135.617 27.864 135.089 25.624 135.089 23C135.089 20.376 135.617 18.136 136.673 16.28C137.761 14.424 139.249 13 141.137 12.008C143.057 11.016 145.265 10.52 147.761 10.52ZM147.761 16.328C146.353 16.328 145.249 16.856 144.449 17.912C143.681 18.936 143.297 20.632 143.297 23C143.297 25.336 143.681 27.032 144.449 28.088C145.249 29.144 146.353 29.672 147.761 29.672C149.201 29.672 150.305 29.144 151.073 28.088C151.873 27.032 152.273 25.336 152.273 23C152.273 20.632 151.873 18.936 151.073 17.912C150.305 16.856 149.201 16.328 147.761 16.328ZM164.111 35V11H171.311L171.647 16.184C172.223 14.424 173.103 13.048 174.287 12.056C175.503 11.032 177.055 10.52 178.943 10.52C179.551 10.52 180.063 10.584 180.479 10.712C180.927 10.808 181.279 10.92 181.535 11.048L180.719 17.768C180.399 17.672 179.983 17.576 179.471 17.48C178.991 17.384 178.399 17.336 177.695 17.336C176.223 17.336 174.943 17.8 173.855 18.728C172.799 19.656 172.271 21.048 172.271 22.904V35H164.111ZM195.847 45.08V11H203.191L203.431 15.848C204.103 14.248 205.111 12.968 206.455 12.008C207.831 11.016 209.447 10.52 211.303 10.52C214.247 10.52 216.615 11.608 218.407 13.784C220.231 15.96 221.143 19 221.143 22.904C221.143 26.872 220.215 29.96 218.359 32.168C216.535 34.376 214.151 35.48 211.207 35.48C209.479 35.48 208.007 35.064 206.791 34.232C205.575 33.368 204.647 32.248 204.007 30.872V45.08H195.847ZM208.423 29.48C209.831 29.48 210.935 28.968 211.735 27.944C212.535 26.888 212.935 25.24 212.935 23C212.935 20.76 212.535 19.128 211.735 18.104C210.967 17.048 209.879 16.52 208.471 16.52C207.095 16.52 206.007 17.08 205.207 18.2C204.407 19.288 204.007 20.888 204.007 23C204.007 25.016 204.391 26.6 205.159 27.752C205.927 28.904 207.015 29.48 208.423 29.48ZM236.405 10.52C238.933 10.52 241.141 11.016 243.029 12.008C244.949 13 246.437 14.424 247.493 16.28C248.581 18.136 249.125 20.376 249.125 23C249.125 25.624 248.581 27.864 247.493 29.72C246.437 31.576 244.949 33 243.029 33.992C241.141 34.984 238.933 35.48 236.405 35.48C233.909 35.48 231.701 34.984 229.781 33.992C227.893 33 226.405 31.576 225.317 29.72C224.261 27.864 223.733 25.624 223.733 23C223.733 20.376 224.261 18.136 225.317 16.28C226.405 14.424 227.893 13 229.781 12.008C231.701 11.016 233.909 10.52 236.405 10.52ZM236.405 16.328C234.997 16.328 233.893 16.856 233.093 17.912C232.325 18.936 231.941 20.632 231.941 23C231.941 25.336 232.325 27.032 233.093 28.088C233.893 29.144 234.997 29.672 236.405 29.672C237.845 29.672 238.949 29.144 239.717 28.088C240.517 27.032 240.917 25.336 240.917 23C240.917 20.632 240.517 18.936 239.717 17.912C238.949 16.856 237.845 16.328 236.405 16.328ZM252.756 35V11H259.956L260.292 16.184C260.868 14.424 261.748 13.048 262.932 12.056C264.148 11.032 265.7 10.52 267.588 10.52C268.196 10.52 268.708 10.584 269.124 10.712C269.572 10.808 269.924 10.92 270.18 11.048L269.364 17.768C269.044 17.672 268.628 17.576 268.116 17.48C267.636 17.384 267.044 17.336 266.34 17.336C264.868 17.336 263.588 17.8 262.5 18.728C261.444 19.656 260.916 21.048 260.916 22.904V35H252.756ZM289.042 11V16.808H281.89V26.456C281.89 27.608 282.162 28.44 282.706 28.952C283.282 29.432 284.066 29.672 285.058 29.672C285.826 29.672 286.482 29.592 287.026 29.432C287.57 29.24 288.082 28.968 288.562 28.616L289.426 33.656C288.626 34.2 287.602 34.648 286.354 35C285.138 35.32 283.906 35.48 282.658 35.48C279.906 35.48 277.73 34.904 276.13 33.752C274.562 32.568 273.762 30.584 273.73 27.8V16.808H269.602V11H273.73V5.624L281.89 3.368V11H289.042ZM305.618 19.784C305.618 18.664 305.298 17.784 304.658 17.144C304.05 16.472 303.218 16.136 302.162 16.136C301.106 16.136 300.194 16.408 299.426 16.952C298.69 17.464 298.178 18.392 297.89 19.736L290.978 18.104C291.426 15.8 292.61 13.96 294.53 12.584C296.45 11.208 299.154 10.52 302.642 10.52C306.162 10.52 308.882 11.304 310.802 12.872C312.754 14.408 313.73 16.664 313.73 19.64V28.424C313.73 29.672 314.29 30.296 315.41 30.296C315.986 30.296 316.45 30.232 316.802 30.104L316.322 34.76C315.362 35.208 314.194 35.432 312.818 35.432C311.314 35.432 310.018 35.144 308.93 34.568C307.842 33.96 307.106 33.048 306.722 31.832C306.05 33.08 304.978 34.008 303.506 34.616C302.066 35.192 300.53 35.48 298.898 35.48C296.434 35.48 294.466 34.92 292.994 33.8C291.554 32.648 290.834 31 290.834 28.856C290.834 27.128 291.346 25.704 292.37 24.584C293.426 23.432 295.074 22.632 297.314 22.184L305.618 20.456V19.784ZM298.898 28.088C298.898 28.792 299.154 29.32 299.666 29.672C300.178 30.024 300.786 30.2 301.49 30.2C302.578 30.2 303.538 29.88 304.37 29.24C305.202 28.568 305.618 27.528 305.618 26.12V24.776L301.73 25.592C300.77 25.784 300.05 26.072 299.57 26.456C299.122 26.808 298.898 27.352 298.898 28.088ZM327.127 0.823999V26.84C327.127 27.896 327.303 28.648 327.655 29.096C328.007 29.544 328.599 29.768 329.431 29.768C329.911 29.768 330.311 29.736 330.631 29.672C330.951 29.608 331.335 29.512 331.783 29.384L331.255 34.28C330.679 34.632 329.927 34.92 328.999 35.144C328.071 35.368 327.159 35.48 326.263 35.48C323.703 35.48 321.847 34.888 320.695 33.704C319.543 32.52 318.967 30.584 318.967 27.896V0.823999H327.127ZM354.756 35.48C351.78 35.48 349.38 34.392 347.556 32.216C345.764 30.04 344.868 27 344.868 23.096C344.868 20.408 345.284 18.136 346.116 16.28C346.98 14.392 348.164 12.968 349.668 12.008C351.204 11.016 352.964 10.52 354.948 10.52C356.644 10.52 358.084 10.936 359.268 11.768C360.484 12.6 361.396 13.704 362.004 15.08V0.823999H370.164V35H362.868L362.58 30.296C361.908 31.896 360.884 33.16 359.508 34.088C358.164 35.016 356.58 35.48 354.756 35.48ZM357.588 29.48C358.932 29.48 360.004 28.92 360.804 27.8C361.604 26.68 362.004 25.032 362.004 22.856C362.004 20.84 361.62 19.288 360.852 18.2C360.084 17.08 359.012 16.52 357.636 16.52C356.228 16.52 355.108 17.048 354.276 18.104C353.476 19.128 353.076 20.76 353.076 23C353.076 25.24 353.476 26.888 354.276 27.944C355.076 28.968 356.18 29.48 357.588 29.48ZM386.77 35.48C382.77 35.48 379.602 34.392 377.266 32.216C374.962 30.04 373.81 26.968 373.81 23C373.81 20.376 374.338 18.136 375.394 16.28C376.482 14.392 377.954 12.968 379.81 12.008C381.698 11.016 383.89 10.52 386.386 10.52C388.914 10.52 391.058 11.016 392.818 12.008C394.61 12.968 395.97 14.312 396.898 16.04C397.826 17.736 398.29 19.688 398.29 21.896C398.29 22.504 398.258 23.096 398.194 23.672C398.162 24.216 398.13 24.68 398.098 25.064H381.73C381.954 26.728 382.498 27.928 383.362 28.664C384.226 29.368 385.362 29.72 386.77 29.72C387.986 29.72 388.946 29.48 389.65 29C390.386 28.52 390.93 27.848 391.282 26.984L397.81 29.144C397.362 30.52 396.578 31.688 395.458 32.648C394.37 33.576 393.058 34.28 391.522 34.76C390.018 35.24 388.434 35.48 386.77 35.48ZM386.386 16.232C383.794 16.232 382.258 17.72 381.778 20.696H390.562C390.21 17.72 388.818 16.232 386.386 16.232ZM122.147 64.216C120.483 64.216 119.267 63.912 118.499 63.304C117.763 62.664 117.395 61.672 117.395 60.328C117.395 58.952 117.763 57.96 118.499 57.352C119.267 56.712 120.483 56.392 122.147 56.392C123.779 56.392 124.979 56.712 125.747 57.352C126.515 57.96 126.899 58.952 126.899 60.328C126.899 61.672 126.515 62.664 125.747 63.304C124.979 63.912 123.779 64.216 122.147 64.216ZM126.227 67V92.344C126.227 95.608 125.395 97.912 123.731 99.256C122.067 100.632 119.795 101.32 116.915 101.32C114.387 101.32 112.291 100.808 110.627 99.784L111.779 94.504C112.131 94.76 112.563 94.968 113.075 95.128C113.587 95.32 114.179 95.416 114.851 95.416C115.811 95.416 116.579 95.128 117.155 94.552C117.763 94.008 118.067 93.032 118.067 91.624V67H126.227ZM142.499 66.52C145.027 66.52 147.235 67.016 149.123 68.008C151.043 69 152.531 70.424 153.587 72.28C154.675 74.136 155.219 76.376 155.219 79C155.219 81.624 154.675 83.864 153.587 85.72C152.531 87.576 151.043 89 149.123 89.992C147.235 90.984 145.027 91.48 142.499 91.48C140.003 91.48 137.795 90.984 135.875 89.992C133.987 89 132.499 87.576 131.411 85.72C130.355 83.864 129.827 81.624 129.827 79C129.827 76.376 130.355 74.136 131.411 72.28C132.499 70.424 133.987 69 135.875 68.008C137.795 67.016 140.003 66.52 142.499 66.52ZM142.499 72.328C141.091 72.328 139.987 72.856 139.187 73.912C138.419 74.936 138.035 76.632 138.035 79C138.035 81.336 138.419 83.032 139.187 84.088C139.987 85.144 141.091 85.672 142.499 85.672C143.939 85.672 145.043 85.144 145.811 84.088C146.611 83.032 147.011 81.336 147.011 79C147.011 76.632 146.611 74.936 145.811 73.912C145.043 72.856 143.939 72.328 142.499 72.328ZM173.498 85.672C176.282 85.672 178.41 86.264 179.882 87.448C181.386 88.6 182.138 90.264 182.138 92.44C182.138 95.448 180.938 97.672 178.538 99.112C176.17 100.584 172.97 101.32 168.938 101.32C164.586 101.32 161.45 100.776 159.53 99.688C157.61 98.6 156.65 97.128 156.65 95.272C156.65 94.184 157.002 93.256 157.706 92.488C158.442 91.72 159.61 91.192 161.21 90.904C158.874 90.04 157.706 88.424 157.706 86.056C157.706 84.936 158.042 83.96 158.714 83.128C159.386 82.264 160.314 81.64 161.498 81.256C158.938 79.848 157.658 77.656 157.658 74.68C157.658 72.088 158.666 70.088 160.682 68.68C162.73 67.24 165.594 66.52 169.274 66.52C171.13 66.52 172.81 66.712 174.314 67.096C174.442 65.944 174.762 64.872 175.274 63.88C175.818 62.888 176.554 62.088 177.482 61.48C178.442 60.84 179.61 60.52 180.986 60.52C181.082 60.52 181.194 60.536 181.322 60.568C181.45 60.568 181.594 60.568 181.754 60.568L182.426 66.04C182.074 65.944 181.69 65.896 181.274 65.896C180.154 65.896 179.258 66.12 178.586 66.568C177.914 67.016 177.466 67.592 177.242 68.296C179.642 69.704 180.842 71.832 180.842 74.68C180.842 77.272 179.818 79.272 177.77 80.68C175.754 82.088 172.922 82.792 169.274 82.792C167.61 82.792 166.106 82.648 164.762 82.36C163.706 82.68 163.178 83.24 163.178 84.04C163.178 85.128 164.074 85.672 165.866 85.672H173.498ZM169.274 71.176C168.218 71.176 167.354 71.48 166.682 72.088C166.042 72.696 165.722 73.56 165.722 74.68C165.722 75.768 166.042 76.616 166.682 77.224C167.354 77.832 168.218 78.136 169.274 78.136C170.298 78.136 171.146 77.832 171.818 77.224C172.49 76.616 172.826 75.768 172.826 74.68C172.826 73.56 172.49 72.696 171.818 72.088C171.146 71.48 170.298 71.176 169.274 71.176ZM168.986 96.04C171.29 96.04 173.002 95.8 174.122 95.32C175.274 94.872 175.85 94.296 175.85 93.592C175.85 93.112 175.658 92.728 175.274 92.44C174.922 92.184 174.298 92.056 173.402 92.056H164.81C164.202 92.056 163.706 92.216 163.322 92.536C162.97 92.856 162.794 93.256 162.794 93.736C162.794 94.472 163.338 95.032 164.426 95.416C165.514 95.832 167.034 96.04 168.986 96.04ZM195.845 66.52C198.373 66.52 200.581 67.016 202.469 68.008C204.389 69 205.877 70.424 206.933 72.28C208.021 74.136 208.565 76.376 208.565 79C208.565 81.624 208.021 83.864 206.933 85.72C205.877 87.576 204.389 89 202.469 89.992C200.581 90.984 198.373 91.48 195.845 91.48C193.349 91.48 191.141 90.984 189.221 89.992C187.333 89 185.845 87.576 184.757 85.72C183.701 83.864 183.173 81.624 183.173 79C183.173 76.376 183.701 74.136 184.757 72.28C185.845 70.424 187.333 69 189.221 68.008C191.141 67.016 193.349 66.52 195.845 66.52ZM195.845 72.328C194.437 72.328 193.333 72.856 192.533 73.912C191.765 74.936 191.381 76.632 191.381 79C191.381 81.336 191.765 83.032 192.533 84.088C193.333 85.144 194.437 85.672 195.845 85.672C197.285 85.672 198.389 85.144 199.157 84.088C199.957 83.032 200.357 81.336 200.357 79C200.357 76.632 199.957 74.936 199.157 73.912C198.389 72.856 197.285 72.328 195.845 72.328ZM222.276 91.48C219.876 91.48 217.652 91.096 215.604 90.328C213.556 89.528 211.844 88.392 210.468 86.92L214.308 82.408C215.108 83.432 216.164 84.296 217.476 85C218.82 85.672 220.308 86.008 221.94 86.008C222.932 86.008 223.748 85.864 224.388 85.576C225.028 85.288 225.348 84.84 225.348 84.232C225.348 83.816 225.188 83.464 224.868 83.176C224.548 82.888 223.908 82.648 222.948 82.456L219.588 81.784C216.58 81.176 214.436 80.28 213.156 79.096C211.908 77.88 211.284 76.296 211.284 74.344C211.284 73.032 211.684 71.784 212.484 70.6C213.284 69.416 214.516 68.44 216.18 67.672C217.844 66.904 219.972 66.52 222.564 66.52C227.524 66.52 231.14 67.896 233.412 70.648L229.524 75.064C228.756 74.104 227.764 73.352 226.548 72.808C225.332 72.264 224.116 71.992 222.9 71.992C220.564 71.992 219.396 72.584 219.396 73.768C219.396 74.184 219.588 74.552 219.972 74.872C220.388 75.192 221.14 75.448 222.228 75.64L226.596 76.504C229.06 76.984 230.836 77.816 231.924 79C233.012 80.152 233.556 81.56 233.556 83.224C233.556 85.56 232.612 87.528 230.724 89.128C228.868 90.696 226.052 91.48 222.276 91.48Z" fill="white"/>
</g>
<defs>
<filter id="filter0_d_58_61" x="0.290634" y="0.391998" width="401.999" height="108.928" filterUnits="userSpaceOnUse" color-interpolation-filters="sRGB">
<feFlood flood-opacity="0" result="BackgroundImageFix"/>
<feColorMatrix in="SourceAlpha" type="matrix" values="0 0 0 0 0 0 0 0 0 0 0 0 0 0 0 0 0 0 127 0" result="hardAlpha"/>
<feOffset dy="4"/>
<feGaussianBlur stdDeviation="2"/>
<feComposite in2="hardAlpha" operator="out"/>
<feColorMatrix type="matrix" values="0 0 0 0 0 0 0 0 0 0 0 0 0 0 0 0 0 0 0.25 0"/>
<feBlend mode="normal" in2="BackgroundImageFix" result="effect1_dropShadow_58_61"/>
<feBlend mode="normal" in="SourceGraphic" in2="effect1_dropShadow_58_61" result="shape"/>
</filter>
</defs>
</svg>
